<svg width="20" height="19" viewBox="0 0 20 19" fill="none" xmlns="http://www.w3.org/2000/svg">
<path d="M4.93994 2.4092C4.93968 2.93964 4.72871 3.44824 4.35345 3.82312C3.97819 4.19801 3.46937 4.40847 2.93894 4.4082C2.40851 4.40794 1.89991 4.19697 1.52502 3.82171C1.15014 3.44645 0.939676 2.93764 0.939942 2.4072C0.940207 1.87677 1.15117 1.36817 1.52644 0.993283C1.9017 0.618397 2.41051 0.407938 2.94094 0.408203C3.47137 0.408469 3.97998 0.619437 4.35486 0.994697C4.72975 1.36996 4.94021 1.87877 4.93994 2.4092ZM4.99994 5.8892H0.999942V18.4092H4.99994V5.8892ZM11.3199 5.8892H7.33994V18.4092H11.2799V11.8392C11.2799 8.1792 16.0499 7.8392 16.0499 11.8392V18.4092H19.9999V10.4792C19.9999 4.3092 12.9399 4.5392 11.2799 7.5692L11.3199 5.8892Z" fill="#F8F8F8"/>
</svg>
