<svg width="20" height="21" viewBox="0 0 20 21" fill="none" xmlns="http://www.w3.org/2000/svg">
<path d="M5.8 0.410156H14.2C17.4 0.410156 20 3.01016 20 6.21016V14.6102C20 16.1484 19.3889 17.6237 18.3012 18.7114C17.2135 19.7991 15.7383 20.4102 14.2 20.4102H5.8C2.6 20.4102 0 17.8102 0 14.6102V6.21016C0 4.6719 0.61107 3.19665 1.69878 2.10894C2.78649 1.02123 4.26174 0.410156 5.8 0.410156ZM5.6 2.41016C4.64522 2.41016 3.72955 2.78944 3.05442 3.46457C2.37928 4.1397 2 5.05538 2 6.01016V14.8102C2 16.8002 3.61 18.4102 5.6 18.4102H14.4C15.3548 18.4102 16.2705 18.0309 16.9456 17.3557C17.6207 16.6806 18 15.7649 18 14.8102V6.01016C18 4.02016 16.39 2.41016 14.4 2.41016H5.6ZM15.25 3.91016C15.5815 3.91016 15.8995 4.04185 16.1339 4.27627C16.3683 4.51069 16.5 4.82864 16.5 5.16016C16.5 5.49168 16.3683 5.80962 16.1339 6.04404C15.8995 6.27846 15.5815 6.41016 15.25 6.41016C14.9185 6.41016 14.6005 6.27846 14.3661 6.04404C14.1317 5.80962 14 5.49168 14 5.16016C14 4.82864 14.1317 4.51069 14.3661 4.27627C14.6005 4.04185 14.9185 3.91016 15.25 3.91016ZM10 5.41016C11.3261 5.41016 12.5979 5.93694 13.5355 6.87462C14.4732 7.8123 15 9.08407 15 10.4102C15 11.7362 14.4732 13.008 13.5355 13.9457C12.5979 14.8834 11.3261 15.4102 10 15.4102C8.67392 15.4102 7.40215 14.8834 6.46447 13.9457C5.52678 13.008 5 11.7362 5 10.4102C5 9.08407 5.52678 7.8123 6.46447 6.87462C7.40215 5.93694 8.67392 5.41016 10 5.41016ZM10 7.41016C9.20435 7.41016 8.44129 7.72623 7.87868 8.28884C7.31607 8.85144 7 9.61451 7 10.4102C7 11.2058 7.31607 11.9689 7.87868 12.5315C8.44129 13.0941 9.20435 13.4102 10 13.4102C10.7956 13.4102 11.5587 13.0941 12.1213 12.5315C12.6839 11.9689 13 11.2058 13 10.4102C13 9.61451 12.6839 8.85144 12.1213 8.28884C11.5587 7.72623 10.7956 7.41016 10 7.41016Z" fill="#F8F8F8"/>
</svg>
