<svg width="55" height="55" viewBox="0 0 55 55" fill="none" xmlns="http://www.w3.org/2000/svg">
<g filter="url(#filter0_d_1236_335)">
<rect width="31" height="31" rx="15.5" transform="matrix(-1 0 0 1 43 6)" fill="#3FABF3"/>
</g>
<path fill-rule="evenodd" clip-rule="evenodd" d="M33.7588 21.9329L33.6926 22.0079L29.7111 25.9894C29.4001 26.3004 28.8959 26.3004 28.585 25.9894C28.2979 25.7024 28.2758 25.2507 28.5187 24.9383L28.585 24.8633L31.2064 22.2412L21.9814 22.2412C21.5416 22.2412 21.1851 21.8847 21.1851 21.4449C21.1851 21.0365 21.4925 20.6999 21.8885 20.6539L21.9814 20.6486L31.2064 20.6486L28.585 18.0265C28.2979 17.7394 28.2758 17.2877 28.5187 16.9753L28.585 16.9003C28.872 16.6133 29.3237 16.5912 29.6361 16.8341L29.7111 16.9003L33.6926 20.8818C33.9796 21.1689 34.0017 21.6205 33.7588 21.9329Z" fill="white"/>
<defs>
<filter id="filter0_d_1236_335" x="0" y="0" width="55" height="55" filterUnits="userSpaceOnUse" color-interpolation-filters="sRGB">
<feFlood flood-opacity="0" result="BackgroundImageFix"/>
<feColorMatrix in="SourceAlpha" type="matrix" values="0 0 0 0 0 0 0 0 0 0 0 0 0 0 0 0 0 0 127 0" result="hardAlpha"/>
<feOffset dy="6"/>
<feGaussianBlur stdDeviation="6"/>
<feColorMatrix type="matrix" values="0 0 0 0 0.247059 0 0 0 0 0.54902 0 0 0 0 1 0 0 0 0.263686 0"/>
<feBlend mode="normal" in2="BackgroundImageFix" result="effect1_dropShadow_1236_335"/>
<feBlend mode="normal" in="SourceGraphic" in2="effect1_dropShadow_1236_335" result="shape"/>
</filter>
</defs>
</svg>
